<?xml version="1.0" standalone="no"?>
<!DOCTYPE svg PUBLIC "-//W3C//DTD SVG 20010904//EN"
 "http://www.w3.org/TR/2001/REC-SVG-20010904/DTD/svg10.dtd">
<svg version="1.0" xmlns="http://www.w3.org/2000/svg"
 width="1506.000000pt" height="1506.000000pt" viewBox="0 0 1506.000000 1506.000000"
 preserveAspectRatio="xMidYMid meet">
<metadata>
Created by potrace 1.14, written by Peter Selinger 2001-2017
</metadata>
<g transform="translate(0.000000,1506.000000) scale(0.100000,-0.100000)"
fill="#000000" stroke="none">
<path d="M0 7530 l0 -7530 7530 0 7530 0 0 7530 0 7530 -7530 0 -7530 0 0
-7530z m8360 3921 c0 -28 5 -53 10 -56 6 -3 10 -19 10 -35 0 -16 5 -32 10 -35
6 -3 10 -20 10 -36 0 -28 52 -119 72 -127 4 -2 8 -12 8 -23 0 -10 5 -19 10
-19 6 0 10 -11 10 -24 0 -14 5 -28 10 -31 6 -3 10 -18 10 -33 0 -20 8 -33 30
-45 16 -10 39 -32 52 -50 12 -18 25 -34 28 -37 3 -3 11 -18 19 -35 7 -16 17
-38 22 -47 5 -10 9 -29 9 -43 0 -15 7 -28 18 -32 24 -9 122 -113 122 -129 0
-8 5 -14 10 -14 6 0 10 -9 10 -20 0 -11 5 -20 10 -20 6 0 10 -9 10 -20 0 -11
5 -20 10 -20 6 0 10 -11 10 -24 0 -14 5 -28 10 -31 6 -3 10 -16 10 -29 0 -12
4 -26 9 -31 5 -6 11 -21 13 -35 2 -19 10 -26 31 -28 15 -2 27 -8 27 -13 0 -5
7 -9 16 -9 25 0 95 -41 132 -78 40 -39 92 -134 92 -167 0 -13 5 -27 10 -30 6
-3 10 -23 10 -44 0 -31 5 -40 28 -52 34 -18 72 -59 72 -80 0 -8 5 -20 11 -26
8 -8 12 -62 13 -155 1 -80 5 -148 11 -153 6 -6 28 -17 51 -24 68 -22 151 -95
180 -161 37 -81 42 -177 15 -295 -7 -27 -14 -62 -18 -77 -3 -16 -9 -28 -14
-28 -5 0 -9 -20 -9 -45 0 -25 5 -45 10 -45 15 0 13 -137 -2 -142 -8 -3 -12
-25 -11 -66 2 -52 -3 -72 -30 -125 -17 -34 -34 -64 -37 -67 -3 -3 -17 -21 -30
-40 -13 -19 -27 -37 -30 -40 -9 -9 -41 -64 -47 -82 -3 -10 -9 -18 -14 -18 -5
0 -9 -9 -9 -20 0 -11 -4 -20 -10 -20 -5 0 -10 -9 -10 -20 0 -11 -4 -20 -10
-20 -5 0 -10 -11 -10 -24 0 -14 -4 -28 -10 -31 -15 -9 -12 -81 4 -94 17 -14
329 -8 476 9 52 6 156 13 230 16 144 6 200 -3 232 -39 14 -16 25 -18 60 -12
81 13 270 17 281 6 6 -6 24 -11 39 -11 15 0 28 -4 28 -10 0 -5 9 -10 20 -10
11 0 20 -4 20 -10 0 -6 33 -10 80 -10 44 0 80 -4 80 -9 0 -11 62 -20 178 -27
45 -3 82 -10 82 -15 0 -5 -4 -9 -10 -9 -5 0 -10 -8 -10 -18 0 -10 -4 -22 -9
-27 -5 -6 -12 -37 -14 -70 -7 -77 -17 -125 -27 -125 -5 0 -11 -24 -13 -52 -9
-84 -18 -128 -28 -128 -5 0 -9 -9 -9 -20 0 -11 -4 -20 -10 -20 -5 0 -10 -9
-10 -20 0 -11 -4 -20 -10 -20 -5 0 -10 -6 -10 -13 0 -7 -9 -23 -21 -36 -16
-17 -20 -29 -14 -54 13 -60 3 -157 -16 -157 -5 0 -9 -9 -9 -20 0 -11 -3 -20
-7 -20 -13 0 -35 -54 -23 -58 21 -7 6 -52 -32 -96 -10 -11 -18 -24 -18 -28 0
-5 -15 -23 -32 -42 -18 -18 -44 -47 -58 -66 -14 -18 -35 -44 -47 -56 -24 -24
-31 -54 -13 -54 6 0 10 -9 10 -20 0 -11 5 -20 10 -20 6 0 10 -13 10 -30 0 -16
5 -30 10 -30 12 0 13 -144 1 -168 -5 -9 -14 -29 -21 -43 -24 -53 -132 -146
-190 -165 -10 -3 -15 -19 -16 -48 -1 -47 -29 -84 -104 -136 -19 -13 -37 -27
-40 -30 -3 -3 -15 -11 -27 -17 -56 -32 -68 -39 -87 -55 -11 -10 -26 -18 -33
-18 -7 0 -13 -4 -13 -8 0 -4 -13 -15 -28 -24 -49 -29 -112 -90 -112 -108 0
-22 41 -100 52 -100 4 0 8 -7 8 -15 0 -8 5 -15 10 -15 6 0 10 -6 10 -14 0 -8
4 -16 8 -18 10 -4 64 -85 78 -118 6 -14 17 -37 24 -51 19 -42 2 -164 -29 -202
-32 -40 -85 -87 -99 -87 -14 0 -62 -48 -62 -62 0 -18 -45 -58 -65 -58 -8 0
-15 -4 -15 -10 0 -5 -9 -10 -21 -10 -30 0 -59 -18 -59 -38 0 -19 -42 -42 -76
-42 -13 0 -26 -4 -29 -10 -3 -5 -40 -10 -81 -10 -73 0 -74 0 -74 -25 0 -56
-70 -135 -118 -135 -11 0 -24 -4 -27 -10 -3 -5 -44 -10 -91 -10 -73 0 -85 -3
-96 -20 -7 -11 -21 -20 -30 -20 -10 0 -18 -5 -18 -11 0 -20 -367 1 -422 26
-14 5 -18 2 -18 -13 0 -12 -4 -24 -10 -27 -5 -3 -10 -15 -10 -26 0 -11 -12
-32 -27 -47 -26 -26 -31 -27 -131 -26 -60 1 -109 7 -115 13 -6 6 -23 11 -38
11 -15 0 -31 5 -34 10 -4 6 -48 9 -109 8 -92 -3 -108 0 -152 22 -27 14 -50 28
-52 33 -2 4 -8 7 -14 7 -5 0 -29 13 -53 30 l-43 29 -43 -21 c-40 -19 -48 -20
-94 -8 -50 13 -61 17 -102 38 -45 23 -67 37 -87 55 -11 9 -26 17 -33 17 -7 0
-13 5 -13 11 0 7 -11 9 -32 5 -79 -16 -96 -17 -102 -7 -4 6 -18 11 -31 11 -24
0 -134 52 -169 80 -54 43 -104 88 -131 119 -86 100 -139 145 -207 180 -45 22
-49 23 -80 8 -38 -18 -68 -50 -68 -72 0 -8 -4 -15 -10 -15 -5 0 -10 -9 -10
-19 0 -11 -4 -23 -10 -26 -5 -3 -10 -17 -10 -31 0 -13 -4 -24 -10 -24 -5 0
-10 -11 -10 -24 0 -14 -4 -28 -10 -31 -5 -3 -10 -17 -10 -30 0 -13 -4 -27 -10
-30 -5 -3 -10 -15 -10 -26 0 -10 -4 -19 -10 -19 -5 0 -10 -11 -10 -24 0 -14
-4 -28 -10 -31 -5 -3 -10 -17 -10 -30 0 -13 -4 -26 -8 -29 -4 -3 -14 -28 -22
-56 -8 -28 -18 -53 -22 -56 -4 -3 -8 -16 -8 -29 0 -13 -4 -27 -10 -30 -5 -3
-10 -19 -10 -35 0 -16 -4 -32 -10 -35 -5 -3 -10 -16 -10 -29 0 -12 -3 -26 -7
-30 -11 -11 -33 -79 -33 -103 0 -13 -4 -23 -10 -23 -5 0 -10 -8 -10 -17 0 -21
-23 -90 -33 -99 -4 -4 -7 -20 -7 -36 0 -15 -4 -28 -10 -28 -5 0 -10 -9 -10
-20 0 -28 -23 -100 -32 -100 -5 0 -8 -13 -8 -30 0 -16 -4 -30 -10 -30 -5 0
-10 -13 -10 -30 0 -16 -4 -30 -10 -30 -5 0 -10 -9 -10 -20 0 -20 -4 -29 -28
-77 -7 -13 -12 -32 -12 -43 0 -11 -4 -20 -10 -20 -5 0 -10 -7 -10 -15 0 -8 -4
-24 -10 -35 -5 -11 -14 -29 -20 -40 -5 -11 -10 -27 -10 -35 0 -8 -3 -15 -8
-15 -4 0 -15 -17 -24 -38 -48 -105 -84 -142 -137 -142 -36 0 -121 35 -129 53
-2 4 -9 7 -17 7 -27 0 -38 27 -22 57 46 88 63 118 70 121 4 2 7 12 7 22 0 10
3 20 8 22 4 1 16 21 28 43 67 129 90 170 97 173 4 2 7 12 7 22 0 10 3 20 8 22
7 3 34 52 136 253 33 66 64 122 68 123 5 2 8 9 8 16 0 14 60 137 71 146 3 3 9
17 12 32 4 15 14 33 22 42 8 8 15 19 15 24 0 6 9 27 20 49 37 73 60 127 60
140 0 7 5 13 10 13 6 0 10 7 10 15 0 8 9 30 20 50 11 20 20 41 20 48 0 7 9 23
20 37 11 14 20 33 20 43 0 9 4 25 9 35 5 9 13 28 19 42 5 14 19 45 30 70 35
80 36 105 8 124 -28 18 -81 22 -91 6 -3 -5 -17 -10 -31 -10 -13 0 -24 -4 -24
-10 0 -5 -7 -10 -15 -10 -14 0 -53 -18 -65 -30 -3 -3 -17 -11 -32 -19 -16 -8
-28 -18 -28 -23 0 -4 -9 -8 -20 -8 -11 0 -20 -4 -20 -10 0 -5 -9 -10 -20 -10
-11 0 -20 -4 -20 -10 0 -5 -9 -10 -20 -10 -11 0 -20 -4 -20 -10 0 -5 -9 -10
-19 -10 -11 0 -23 -4 -26 -10 -3 -6 -19 -10 -34 -10 -15 0 -32 -5 -37 -10 -6
-6 -109 -14 -241 -19 -145 -5 -238 -13 -252 -21 -17 -8 -26 -9 -34 -1 -6 6
-18 11 -27 11 -9 0 -26 9 -38 20 -23 21 -57 26 -67 10 -9 -15 -107 -11 -129 5
-15 12 -19 28 -20 82 l-1 68 -70 6 c-38 4 -103 7 -143 8 -40 0 -80 5 -90 10
-9 6 -29 12 -43 15 -32 7 -69 38 -69 60 0 13 -11 16 -58 16 -57 0 -82 11 -82
38 0 21 -26 42 -53 42 -33 0 -87 28 -87 46 0 8 -5 14 -11 14 -6 0 -10 21 -9
53 3 86 3 84 -37 90 -72 11 -103 19 -103 28 0 5 -7 9 -16 9 -26 0 -44 27 -44
67 0 34 -4 41 -37 58 -48 25 -63 39 -63 59 0 9 -4 16 -10 16 -13 0 -13 57 0
65 23 14 8 35 -32 46 -64 17 -90 31 -123 64 -37 38 -55 69 -55 96 0 20 -36 80
-52 87 -4 2 -8 12 -8 23 0 10 -4 19 -10 19 -19 0 -11 121 12 172 12 26 25 48
30 48 4 0 8 7 8 15 0 8 36 50 80 94 44 43 80 83 80 88 0 4 -72 81 -160 170
-88 89 -160 169 -160 178 0 8 -4 15 -8 15 -4 0 -14 21 -21 47 -11 36 -12 53
-3 77 11 29 10 33 -26 66 -20 19 -43 45 -49 58 -16 27 -17 104 -2 119 7 7 4
21 -10 47 -46 81 -11 168 97 245 26 18 31 27 26 44 -4 12 -10 24 -13 27 -3 3
-17 28 -30 55 -13 28 -27 58 -32 67 -11 21 -12 188 -1 188 14 0 33 53 22 64
-12 12 -14 76 -2 76 16 0 32 57 32 112 0 59 11 90 43 119 21 20 21 28 0 70
-33 63 -39 92 -28 124 5 17 14 33 19 37 6 4 9 43 7 87 -2 91 4 109 62 164 30
29 37 41 27 47 -10 6 -14 52 -14 195 -1 182 -1 186 19 179 11 -3 58 -10 105
-14 47 -5 120 -12 163 -16 42 -4 77 -11 77 -15 0 -5 9 -9 19 -9 23 0 101 -40
101 -52 0 -4 9 -8 20 -8 11 0 20 5 20 10 0 14 153 13 167 -1 6 -6 32 -11 57
-11 25 1 48 -3 51 -8 4 -6 13 -10 20 -10 8 0 42 -27 77 -60 34 -33 67 -60 74
-60 7 0 15 -6 17 -12 4 -9 8 -10 14 -3 15 18 102 36 123 25 10 -5 30 -10 44
-10 14 0 28 -4 31 -10 3 -5 15 -10 26 -10 10 0 19 -4 19 -10 0 -5 6 -10 14
-10 7 0 28 -14 46 -32 20 -19 35 -27 38 -20 4 14 42 16 42 2 0 -5 7 -10 15
-10 8 0 53 -37 99 -82 46 -46 98 -94 116 -107 18 -14 45 -37 62 -52 16 -16 38
-31 49 -34 10 -4 19 -11 19 -16 0 -5 9 -9 19 -9 11 0 21 -6 24 -12 6 -21 34 8
42 45 4 18 11 129 15 247 5 118 11 235 15 260 7 48 42 130 61 143 13 8 8 66
-7 82 -5 5 -9 44 -9 87 0 58 5 86 19 111 41 73 57 109 65 148 7 32 58 89 80
89 9 0 16 4 16 9 0 12 63 21 179 27 91 5 121 16 121 43 0 6 3 11 8 11 6 0 16
19 42 85 7 19 18 47 39 98 5 12 15 39 22 60 7 20 17 37 21 37 4 0 8 5 8 10 0
20 49 60 73 60 15 0 27 7 30 18 12 37 55 98 103 146 81 80 118 96 217 96 49 0
88 -5 94 -11 9 -9 21 -2 50 27 21 22 54 51 73 64 19 13 37 27 40 30 3 3 37 20
75 39 39 18 78 37 87 42 10 5 27 9 37 9 11 0 23 5 26 10 3 6 19 10 34 10 21 0
46 17 101 70 40 39 79 70 86 70 8 0 14 5 14 10 0 6 11 10 24 10 14 0 28 5 31
10 3 6 15 10 26 10 26 0 79 28 79 41 0 15 90 99 107 99 7 0 13 5 13 10 0 6 9
10 20 10 11 0 20 5 20 10 0 6 7 10 16 10 18 0 44 23 44 39 0 6 5 11 10 11 6 0
10 7 10 15 0 8 5 15 10 15 6 0 10 6 10 13 0 7 8 22 18 33 10 10 28 35 42 54
13 19 32 42 42 51 10 9 18 24 18 33 0 9 8 16 20 16 17 0 20 -7 20 -49z"/>
</g>
</svg>
